<svg width="181" height="31" viewBox="0 0 181 31" fill="none" xmlns="http://www.w3.org/2000/svg">
<path d="M166.769 8.71192L169.654 5.19254H151.595V0H181L164.173 21.1355L161.172 24.8665H180.058V30.059H150.114L166.769 8.71192Z" fill="black"/>
<path d="M126.385 5.34639H115.288V0H143.578V5.34639H132.481V30.059H126.385V5.34639Z" fill="black"/>
<path d="M39.3477 0H54.6368C56.9446 0 58.9447 0.2436 60.637 0.730801C62.3294 1.20518 63.7333 1.89752 64.8488 2.80782C65.9642 3.71811 66.7912 4.82713 67.3296 6.13488C67.881 7.44263 68.1566 8.92347 68.1566 10.5774C68.1566 11.6928 68.022 12.757 67.7527 13.7698C67.4835 14.7699 67.0668 15.693 66.5027 16.5392C65.9514 17.3854 65.2526 18.1418 64.4064 18.8085C63.5603 19.4624 62.5666 20.0073 61.4255 20.4432L67.9643 30.059H60.5024L54.8483 21.5202H54.6752L45.4441 21.5009V30.059H39.3477V0ZM54.7906 16.2315C55.9445 16.2315 56.951 16.0969 57.81 15.8276C58.6818 15.5584 59.4062 15.1802 59.9832 14.693C60.5729 14.2058 61.0089 13.616 61.2909 12.9236C61.5858 12.2185 61.7333 11.4364 61.7333 10.5774C61.7333 8.89783 61.1563 7.6029 60.0024 6.6926C58.8485 5.76948 57.1113 5.30793 54.7906 5.30793H45.4441V16.2315H54.7906Z" fill="black"/>
<path d="M17.0339 12.1978H27.937V18.2966H11.7061L17.0339 12.1978Z" fill="black"/>
<path d="M27.9365 0V6.49233L22.043 6.51279L27.9365 0Z" fill="black"/>
<path d="M6.09885 0H16.1324V6.49233H6.09885V23.8052H27.9367V29.904H0V6.49233L6.09885 0Z" fill="black"/>
<path d="M96.1892 12.1978H107.092V18.2966H90.8613L96.1892 12.1978Z" fill="black"/>
<path d="M107.093 0V6.49233L101.199 6.51279L107.093 0Z" fill="black"/>
<path d="M85.2541 0H95.2877V6.49233H85.2541V23.8052H107.092V29.904H79.1553V6.49233L85.2541 0Z" fill="black"/>
</svg>
